<svg xmlns="http://www.w3.org/2000/svg" viewBox="0 0 21 14"><path fill="#FFF" d="M0 0h21v14H0z"/><path fill="#28A940" d="M0 7h21v7H0V7z"/><path fill="#D20F35" d="m8.5 11.1 1.2-.2-.9-.4.6-.3s1 .9 1 .6c0-.3 1-.2.9-.6-.1-.6-1.1 0-1.3-.8 0-.4-.4-.4-.4-.4l-1 .4-.5.8-.3-.8s-.6.5-.8.8c-.2.3-.4 1-.4 1l1 .4-1.5-.3-1.1.2-.7.2.3-.3-.6-.3.6-.4-.3-.2 1.3.2s.5 0 .7-.2c.2-.3.4-1.1.4-1.1L6.1 9l-.4.9s-.3-.8-.6-1.3L4 7.5l-.9.5.5-1.1s.4-.4.2-.8c-.3-.3-.6-1.2-.6-1.2s.6 1 .8.9c.3-.1-.4-1 0-1.2.3-.1.3 1 .3 1l.3-.6v.7s-.2.8.1 1.3c.4.7 1.2 1 1.2 1s-.2-.5 0-1.5c.2-.7.7-1.8 1-2.1.1-.2-1.1.7-1.1.7v-.7l-1.2-.1-.3.4-.7-1.3.9.5h1.4l-.2-.3H4.5s.2-.5 1.4-.5l.6-.4h1.2c.4 0 1.1-.5 1.1-.5l.2.5-.5.7.5.5-.3.3.3.5h-.5l.5.7-.5-.3.3.7-.3.8 1.2-.4s0-1 .4-1.5c1.3-1.3 3.4-2.4 3.4-2.4s-.1 1 .2 1c.5.1 2.4-.8 2.4-.8s-1.2 1.3-.9 1.4l.3.3s-1 .8-1.2 1.2c-.2.4.3.8.3.8s-.9 0-1.3.4c1.3 0 2.4.6 3.1.2.4-.3-1.5-.1-1.3-.9.1-.3.3-.6.9-.7.6-.1.8.3.8.3l.2-.6h-.9l1.7-1.6.2 2.1-.6-.5-.3.8c.6 1.8-2.1 2.2-2.1 2.2L16.7 9l-.6.2-.2 1.7.8.6-1-.3-2 .5.4-.6-.8.2.6-.5-.6-.2.7-.2.9.6s.4-.6.5-.9c.1-.3-.2-1-.2-1s-1.3 0-1.8-.1c-.3-.1-.6-.2-.7-.5l-.6.5s1.9.7 1.4 1c-.1.1-.6-.1-.6-.1s-.9 1.1-1.5 1.2c-.3.1.7.4.7.4s-.9-.1-1.3-.3c-.5-.1-1.8.3-1.8.3l-.5-.4zm7.5-5c.1 0 .2-.1.2-.2s-.1-.2-.2-.2-.2.1-.2.2 0 .2.2.2z"/></svg>